<svg width="465" height="465" viewBox="0 0 465 465" fill="none" xmlns="http://www.w3.org/2000/svg">
<mask id="mask0_59_1858" style="mask-type:alpha" maskUnits="userSpaceOnUse" x="88" y="1" width="357" height="358">
<path d="M416.456 235.883L426.754 246.138C431.452 250.816 431.61 258.248 427.108 262.768L403.258 286.72C399.234 290.761 393.108 291.935 387.67 289.681L235.288 226.606C228.438 223.779 220.673 225.229 215.605 230.319L204.574 241.396M288.369 49.6629C261.894 51.8594 229.267 75.4777 200.404 80.0084M333.885 94.9866C307.409 97.1831 274.782 120.802 245.92 125.332M379.401 140.31C352.925 142.507 320.298 166.125 291.436 170.656M424.917 185.634C398.441 187.831 365.814 211.449 336.952 215.98M435.898 196.569L248.39 9.85167C242.945 4.43014 225.289 13.2629 209.012 29.6095C192.734 45.9562 183.945 63.6182 189.42 69.0708L376.929 255.788C382.374 261.21 400.03 252.377 416.307 236.03C432.585 219.684 441.374 202.022 435.898 196.569ZM103.635 342.704C92.0611 331.18 91.6688 312.782 102.759 301.645L174.637 229.462C179.586 224.492 187.811 224.633 192.975 229.776L216.215 252.918C221.38 258.06 221.555 266.285 216.606 271.254L144.728 343.437C133.638 354.574 115.239 354.26 103.666 342.735L103.635 342.704ZM133.841 327.122C137.747 323.2 137.609 316.743 133.533 312.684C129.458 308.626 123 308.516 119.094 312.438C115.189 316.359 115.326 322.817 119.402 326.875C123.478 330.934 129.936 331.044 133.841 327.122Z" stroke="#D34C5A" stroke-width="13.1717" stroke-linecap="round" stroke-linejoin="round"/>
</mask>
<g mask="url(#mask0_59_1858)">
<g filter="url(#filter0_d_59_1858)">
<rect x="170" y="-274" width="849" height="548" fill="#D34C5A"/>
</g>
</g>
<defs>
<filter id="filter0_d_59_1858" x="137" y="-303" width="915" height="614" filterUnits="userSpaceOnUse" color-interpolation-filters="sRGB">
<feFlood flood-opacity="0" result="BackgroundImageFix"/>
<feColorMatrix in="SourceAlpha" type="matrix" values="0 0 0 0 0 0 0 0 0 0 0 0 0 0 0 0 0 0 127 0" result="hardAlpha"/>
<feOffset dy="4"/>
<feGaussianBlur stdDeviation="16.5"/>
<feComposite in2="hardAlpha" operator="out"/>
<feColorMatrix type="matrix" values="0 0 0 0 0 0 0 0 0 0 0 0 0 0 0 0 0 0 0.1 0"/>
<feBlend mode="normal" in2="BackgroundImageFix" result="effect1_dropShadow_59_1858"/>
<feBlend mode="normal" in="SourceGraphic" in2="effect1_dropShadow_59_1858" result="shape"/>
</filter>
</defs>
</svg>
