<svg width="471" height="542" viewBox="0 0 471 542" fill="none" xmlns="http://www.w3.org/2000/svg">
<mask id="mask0_59_1790" style="mask-type:alpha" maskUnits="userSpaceOnUse" x="15" y="0" width="417" height="454">
<path d="M318.724 299.315L329.069 308.046C333.792 312.031 334.364 319.246 330.425 324.172L309.408 350.458C305.879 354.872 300.154 356.772 294.907 355.248L147.388 312.532C140.75 310.627 133.531 312.983 129.057 318.579L119.352 330.716M186.534 133.64C161.742 139.052 132.428 166.057 105.482 174.007M232.226 172.203C207.433 177.615 178.119 204.621 151.173 212.57M277.92 210.756C253.128 216.168 223.814 243.174 196.867 251.124M323.611 249.32C298.819 254.732 269.505 281.737 242.558 289.687M50.849 416.391L51.7627 415.248M334.624 258.618L426.662 248.244M146.381 99.7685L138.411 5M334.627 258.616L146.383 99.7598C140.91 95.1416 124.823 105.919 110.486 123.85C96.1488 141.781 88.9825 160.087 94.4551 164.706L282.699 323.561C288.172 328.18 304.26 317.402 318.596 299.471C332.933 281.54 340.1 263.234 334.627 258.616ZM30.4642 441.886C18.8442 432.08 17.3387 414.178 27.1066 401.961L90.3779 322.828C94.7262 317.39 102.485 316.479 107.695 320.876L131.01 340.551C136.183 344.916 136.89 352.905 132.51 358.382L69.2385 437.515C59.4706 449.732 42.0842 451.692 30.4642 441.886Z" stroke="#D34C5A" stroke-width="9.96814" stroke-linecap="round" stroke-linejoin="round"/>
</mask>
<g mask="url(#mask0_59_1790)">
<g filter="url(#filter0_d_59_1790)">
<rect x="43" y="-184" width="849" height="548" fill="#D34C5A"/>
</g>
</g>
<defs>
<filter id="filter0_d_59_1790" x="10" y="-213" width="915" height="614" filterUnits="userSpaceOnUse" color-interpolation-filters="sRGB">
<feFlood flood-opacity="0" result="BackgroundImageFix"/>
<feColorMatrix in="SourceAlpha" type="matrix" values="0 0 0 0 0 0 0 0 0 0 0 0 0 0 0 0 0 0 127 0" result="hardAlpha"/>
<feOffset dy="4"/>
<feGaussianBlur stdDeviation="16.5"/>
<feComposite in2="hardAlpha" operator="out"/>
<feColorMatrix type="matrix" values="0 0 0 0 0 0 0 0 0 0 0 0 0 0 0 0 0 0 0.1 0"/>
<feBlend mode="normal" in2="BackgroundImageFix" result="effect1_dropShadow_59_1790"/>
<feBlend mode="normal" in="SourceGraphic" in2="effect1_dropShadow_59_1790" result="shape"/>
</filter>
</defs>
</svg>
