<svg width="300" height="325" viewBox="0 0 300 325" fill="none" xmlns="http://www.w3.org/2000/svg">
<mask id="mask0_59_1846" style="mask-type:alpha" maskUnits="userSpaceOnUse" x="0" y="0" width="300" height="332">
<path d="M222.053 234.615V285.001L131.496 324.898L35.2819 285.001V235.131M35.2819 186.93L131.496 225.078L222.053 186.93M131.503 225.075V324.895M131.501 225.078L103.214 265.928L7 222.336L35.2861 186.93M206.363 181.922L222.055 186.929M35.2819 186.931L56.92 180.017M222.06 186.93L247.538 222.336L162.639 263.186L131.503 225.078M178.285 205.367C179.73 195.751 181.878 186.174 187.824 176.558C200.377 156.212 225.071 157.682 240.267 160.782C247.741 162.332 255.339 158.676 258.478 151.96L269.173 129.231L147.522 76.2606L136.826 98.9904C133.688 105.706 135.835 113.574 141.988 117.985C154.417 126.886 171.885 143.774 164.287 166.305C156.978 187.923 139.469 198.135 128.692 216.017C127.412 218.123 126.379 220.348 125.512 222.693M269.134 129.235L292.341 79.8411C294.034 76.225 292.341 72.013 288.625 70.3837L180.477 23.295C176.719 21.6657 172.342 23.295 170.649 26.8713L147.442 76.2648M140.045 92.0377L261.737 145.008M190.797 27.8235L176.261 58.6597M208.309 35.4509L197.407 58.578M225.812 43.0782L206.486 84.1667M243.325 50.7132L230.029 78.9664M260.829 58.3022L245.138 91.7213M278.382 65.9295L269.917 83.9703M191.42 71.337L191.378 71.4226M263.89 96.7308L263.849 96.8126M54.7344 109.085C43.7916 110.675 32.312 108.37 23.31 102.012C13.9363 95.4155 8.07268 84.6468 7.37068 73.4806C6.79257 64.2615 9.84809 55.4398 12.5735 46.6975C15.2576 37.9951 17.4049 28.9748 15.175 19.9544C14.5556 17.451 13.6473 15.0667 12.4911 12.762C11.8304 11.4506 11.1283 10.2187 10.3437 8.98687C10.1785 8.74844 9.0224 7.23838 9.14628 7.07943C9.22887 6.96022 10.0134 7.03974 10.1373 7C10.8806 7 11.6238 7 12.4084 7C18.685 7.15895 24.9618 8.07293 31.0732 9.38426C40.4056 11.4109 49.4901 14.5898 57.8315 19.1596C67.7419 24.6036 76.4549 32.0345 82.8968 41.1741C84.6724 43.6776 86.2828 46.3002 87.728 49.042C93.5505 60.0493 93.3029 73.4408 88.1825 84.6468C86.2004 88.9781 83.4748 92.9121 80.2126 96.25M91.0326 209.02C75.341 180.449 62.8704 151.798 58.6171 129.068M94.9104 111.386C109.9 126.566 125.261 149.773 139.136 175.562M32.2308 84.5303C28.3492 80.1989 26.1607 74.596 26.0368 68.7546C25.9542 63.4695 27.6061 58.3434 29.5056 53.2173M100.609 186.213C93.6305 172.782 87.5604 159.509 82.9355 147.111M80.0494 96.1715C80.0494 96.1715 75.0528 96.4099 66.8767 100.384C59.609 103.92 54.6537 108.53 54.6537 108.53L58.6593 129.074C58.6593 129.074 64.5229 124.027 75.8787 118.464C87.1931 112.941 94.915 111.351 94.915 111.351L80.0494 96.1317V96.1715Z" stroke="#D34C5A" stroke-width="12.3881" stroke-linecap="round" stroke-linejoin="round"/>
</mask>
<g mask="url(#mask0_59_1846)">
<g filter="url(#filter0_d_59_1846)">
<rect x="-17" y="-267" width="849" height="548" fill="#D34C5A"/>
</g>
</g>
<defs>
<filter id="filter0_d_59_1846" x="-50" y="-296" width="915" height="614" filterUnits="userSpaceOnUse" color-interpolation-filters="sRGB">
<feFlood flood-opacity="0" result="BackgroundImageFix"/>
<feColorMatrix in="SourceAlpha" type="matrix" values="0 0 0 0 0 0 0 0 0 0 0 0 0 0 0 0 0 0 127 0" result="hardAlpha"/>
<feOffset dy="4"/>
<feGaussianBlur stdDeviation="16.5"/>
<feComposite in2="hardAlpha" operator="out"/>
<feColorMatrix type="matrix" values="0 0 0 0 0 0 0 0 0 0 0 0 0 0 0 0 0 0 0.1 0"/>
<feBlend mode="normal" in2="BackgroundImageFix" result="effect1_dropShadow_59_1846"/>
<feBlend mode="normal" in="SourceGraphic" in2="effect1_dropShadow_59_1846" result="shape"/>
</filter>
</defs>
</svg>
