<svg width="16" height="16" viewBox="0 0 16 16" fill="none" xmlns="http://www.w3.org/2000/svg">
<g clip-path="url(#clip0_31_2499)">
<path d="M11.5952 0H3.86508C1.70064 0 0 1.70064 0 3.86508V11.5952C0 13.7597 1.70064 15.4603 3.86508 15.4603H11.5952C13.7597 15.4603 15.4603 13.7597 15.4603 11.5952V3.86508C15.4603 1.70064 13.7597 0 11.5952 0ZM13.9143 11.5952C13.9143 12.9094 12.9094 13.9143 11.5952 13.9143H3.86508C2.55095 13.9143 1.54603 12.9094 1.54603 11.5952V3.86508C1.54603 2.55095 2.55095 1.54603 3.86508 1.54603H11.5952C12.9094 1.54603 13.9143 2.55095 13.9143 3.86508V11.5952Z" fill="white"/>
<path d="M7.73032 3.86523C5.56587 3.86523 3.86523 5.56587 3.86523 7.73032C3.86523 9.89476 5.56587 11.5954 7.73032 11.5954C9.89476 11.5954 11.5954 9.89476 11.5954 7.73032C11.5954 5.56587 9.89476 3.86523 7.73032 3.86523ZM7.73032 10.0494C6.41619 10.0494 5.41127 9.04444 5.41127 7.73032C5.41127 6.41619 6.41619 5.41127 7.73032 5.41127C9.04444 5.41127 10.0494 6.41619 10.0494 7.73032C10.0494 9.04444 9.04444 10.0494 7.73032 10.0494Z" fill="white"/>
<path d="M11.5953 4.63881C12.0222 4.63881 12.3683 4.29272 12.3683 3.86579C12.3683 3.43886 12.0222 3.09277 11.5953 3.09277C11.1684 3.09277 10.8223 3.43886 10.8223 3.86579C10.8223 4.29272 11.1684 4.63881 11.5953 4.63881Z" fill="white"/>
</g>
<defs>
<clipPath id="clip0_31_2499">
<rect width="15.4603" height="15.4603" fill="white"/>
</clipPath>
</defs>
</svg>
