<svg width="33" height="40" viewBox="0 0 33 40" fill="none" xmlns="http://www.w3.org/2000/svg">
<path d="M22.9692 15.4619C22.9692 18.8214 20.0742 21.5426 16.4999 21.5426C12.9257 21.5426 10.0307 18.8214 10.0307 15.4619C10.0307 12.1023 12.9257 9.38115 16.4999 9.38115C20.0742 9.38115 22.9692 12.1023 22.9692 15.4619ZM16.4999 13.0296C15.0686 13.0296 13.9122 14.1165 13.9122 15.4619C13.9122 16.8072 15.0686 17.8941 16.4999 17.8941C17.9313 17.8941 19.0877 16.8072 19.0877 15.4619C19.0877 14.1165 17.9313 13.0296 16.4999 13.0296ZM32.0263 15.4619C32.0263 22.105 22.5649 33.932 18.4165 38.8118C17.4218 39.9747 15.5781 39.9747 14.5834 38.8118C10.3622 33.932 0.973633 22.105 0.973633 15.4619C0.973633 7.40188 7.92489 0.868164 16.4999 0.868164C25.0718 0.868164 32.0263 7.40188 32.0263 15.4619ZM16.4999 4.51659C10.0711 4.51659 4.85521 9.41915 4.85521 15.4619C4.85521 16.4044 5.2183 17.8637 6.09246 19.8096C6.93994 21.6946 8.14323 23.7772 9.52928 25.8827C11.8259 29.3943 14.4945 32.7234 16.4999 35.2013C18.5054 32.7234 21.174 29.3943 23.4706 25.8827C24.8534 23.7772 26.0583 21.6946 26.9074 19.8096C27.7808 17.8637 28.1447 16.4044 28.1447 15.4619C28.1447 9.41915 22.9288 4.51659 16.4999 4.51659Z" fill="white"/>
</svg>
