<svg width="31" height="25" viewBox="0 0 31 25" fill="none" xmlns="http://www.w3.org/2000/svg">
<path d="M4.21387 3.18436C3.70684 3.18436 3.29199 3.65015 3.29199 4.21945V5.64917L13.231 14.8097C14.4236 15.9095 16.1349 15.9095 17.3275 14.8097L27.2607 5.64917V4.21945C27.2607 3.65015 26.8459 3.18436 26.3389 3.18436H4.21387ZM3.29199 9.6666V20.7809C3.29199 21.3502 3.70684 21.8159 4.21387 21.8159H26.3389C26.8459 21.8159 27.2607 21.3502 27.2607 20.7809V9.6666L19.0791 17.2098C16.8666 19.2476 13.6804 19.2476 11.4736 17.2098L3.29199 9.6666ZM0.526367 4.21945C0.526367 1.93579 2.17998 0.0791016 4.21387 0.0791016H26.3389C28.3728 0.0791016 30.0264 1.93579 30.0264 4.21945V20.7809C30.0264 23.0645 28.3728 24.9212 26.3389 24.9212H4.21387C2.17998 24.9212 0.526367 23.0645 0.526367 20.7809V4.21945Z" fill="white"/>
</svg>
