<svg width="23" height="27" viewBox="0 0 23 27" fill="none" xmlns="http://www.w3.org/2000/svg">
<path d="M22.7792 14.0695L14.2621 23.3508C14.0926 23.5353 13.8154 23.625 13.6306 23.625C13.4259 23.625 13.2205 23.5525 13.0576 23.4058C12.7099 23.0927 12.6841 22.5589 13.0002 22.2145L20.2225 14.3437H0.851719C0.380886 14.3437 0 13.9664 0 13.5474C0 13.1285 0.380989 12.6562 0.851719 12.6562H20.222L12.9986 4.78298C12.6825 4.43857 12.7083 3.90442 13.056 3.59171C13.4045 3.28026 13.9426 3.30331 14.2599 3.6494L22.7771 12.9307C23.0719 13.2521 23.0719 13.7478 22.7792 14.0695Z" fill="#161543"/>
</svg>
