<svg width="54" height="74" viewBox="0 0 54 74" fill="none" xmlns="http://www.w3.org/2000/svg">
<g clip-path="url(#clip0_22_1609)">
<path d="M21.737 73.9996C21.2952 73.9996 20.8708 73.8121 20.5787 73.4797L15.1914 67.3396L6.91921 70.1576C6.34516 70.3536 5.70862 70.1973 5.29589 69.7613C4.88315 69.3252 4.77561 68.6918 5.01976 68.1478L11.7514 53.2086C12.0915 52.4544 12.9911 52.1121 13.7628 52.4444C14.5345 52.7768 14.8833 53.656 14.5446 54.4102L9.22704 66.2118L15.1696 64.1878C15.7625 63.9862 16.4208 64.1594 16.8307 64.6253L21.3359 69.7599L24.1945 63.5899C24.5418 62.8399 25.4458 62.5076 26.2146 62.847C26.9819 63.1865 27.322 64.07 26.9747 64.8213L23.1278 73.1247C22.9127 73.5891 22.4694 73.9144 21.9535 73.9854C21.8809 73.9953 21.8097 74.001 21.7384 74.001L21.737 73.9996Z" fill="#D9081E"/>
<path d="M33.3417 71.6307C32.7924 71.6307 32.2837 71.3424 32.0119 70.8722L24.0188 57.0111C23.6046 56.2938 23.8648 55.3834 24.5987 54.98C25.3326 54.5752 26.2642 54.8294 26.6769 55.5467L33.1702 66.8058L36.0652 60.3475C36.3747 59.6572 37.161 59.3021 37.8992 59.5166L43.3418 61.1031L39.6141 53.4957C39.2508 52.7529 39.572 51.8623 40.3306 51.5058C41.0907 51.1507 42.0019 51.4632 42.3666 52.2075L47.5811 62.8501C47.8412 63.3827 47.7569 64.0148 47.3645 64.4636C46.9721 64.9125 46.3472 65.0928 45.7688 64.9238L38.3192 62.7521L34.7383 70.7387C34.5058 71.2557 33.9942 71.6009 33.4173 71.6293C33.3911 71.6293 33.3664 71.6307 33.3402 71.6307H33.3417Z" fill="#D9081E"/>
<path d="M27.0008 53.9656C25.3339 53.9656 24.1465 52.7427 23.0972 51.6646C22.5929 51.1462 21.9026 50.4346 21.5422 50.3551C21.1397 50.2656 20.1703 50.6235 19.4626 50.8849C18.063 51.4004 16.4775 51.9856 15.0184 51.2982C13.5389 50.6008 13.0157 49.0072 12.5551 47.6024C12.3269 46.9093 12.0159 45.9605 11.7121 45.7233C11.4026 45.4819 10.3809 45.3938 9.63539 45.3299C8.13559 45.202 6.43669 45.0558 5.41793 43.8087C4.40208 42.5659 4.63316 40.9183 4.83662 39.4653C4.93835 38.7366 5.07786 37.7396 4.90347 37.3845C4.73779 37.0493 3.86727 36.5436 3.23073 36.1758C1.92567 35.4201 0.447674 34.5622 0.0814439 32.9857C-0.274613 31.4559 0.656948 30.0825 1.47951 28.8723C1.90242 28.2502 2.48083 27.398 2.48083 26.9833C2.48083 26.5685 1.90242 25.7163 1.47951 25.0942C0.656948 23.8827 -0.274613 22.5106 0.0814439 20.9809C0.447674 19.4043 1.92713 18.5478 3.23073 17.7908C3.86582 17.4229 4.73779 16.9173 4.90347 16.5821C5.07932 16.227 4.9398 15.2299 4.83662 14.5013C4.63316 13.0483 4.40208 11.4007 5.41793 10.1579C6.43815 8.90938 8.13705 8.76451 9.63539 8.63668C10.3809 8.57276 11.4026 8.48612 11.7121 8.24324C12.0159 8.00604 12.3283 7.05725 12.5551 6.36412C13.0157 4.9594 13.5389 3.36578 15.0198 2.66839C16.4789 1.98094 18.0645 2.56612 19.464 3.08171C20.1718 3.34305 21.1426 3.70098 21.5437 3.61149C21.9041 3.53196 22.5944 2.82036 23.0987 2.30194C24.1465 1.22389 25.3353 0.000976562 27.0022 0.000976562C28.6692 0.000976562 29.8565 1.22389 30.9058 2.30194C31.4101 2.82036 32.1004 3.53196 32.4608 3.61149C32.8634 3.70098 33.8327 3.34305 34.5405 3.08171C35.94 2.56612 37.5255 1.97952 38.9846 2.66839C40.4641 3.36578 40.9873 4.9594 41.448 6.36412C41.6761 7.05725 41.9871 8.00604 42.2909 8.24324C42.6004 8.4847 43.6221 8.57276 44.3676 8.63668C45.8674 8.76451 47.5663 8.9108 48.5851 10.1579C49.6009 11.4007 49.3699 13.0483 49.1664 14.5013C49.0647 15.2299 48.9252 16.227 49.0996 16.5821C49.2652 16.9173 50.1358 17.4215 50.7723 17.7908C52.0774 18.5464 53.5554 19.4043 53.9216 20.9809C54.2776 22.5106 53.3461 23.8841 52.5235 25.0942C52.1006 25.7163 51.5222 26.5685 51.5222 26.9833C51.5222 27.398 52.1006 28.2502 52.5235 28.8723C53.3461 30.0839 54.2776 31.4559 53.9216 32.9857C53.5554 34.5622 52.0759 35.4187 50.7723 36.1758C50.1372 36.5436 49.2652 37.0493 49.0996 37.3845C48.9237 37.7396 49.0632 38.7366 49.1664 39.4653C49.3699 40.9183 49.6009 42.5659 48.5851 43.8087C47.5649 45.0572 45.866 45.202 44.3676 45.3299C43.6221 45.3938 42.6004 45.4804 42.2909 45.7233C41.9871 45.9605 41.6747 46.9093 41.448 47.6024C40.9873 49.0072 40.4641 50.6008 38.9846 51.2982C37.5255 51.9856 35.94 51.4004 34.5405 50.8849C33.8327 50.6235 32.8634 50.2656 32.4594 50.3551C32.0989 50.4346 31.4086 51.1462 30.9043 51.6646C29.8565 52.7427 28.6677 53.9656 27.0008 53.9656ZM21.41 47.361C21.6803 47.361 21.9506 47.3865 22.218 47.4462C23.478 47.726 24.4096 48.6833 25.3092 49.6108C25.8076 50.1235 26.6433 50.9829 26.9993 50.9829C27.3554 50.9829 28.191 50.1235 28.6895 49.6108C29.5891 48.6847 30.5207 47.7274 31.7807 47.4462C33.0785 47.1579 34.4257 47.655 35.6159 48.0939C36.1871 48.3041 37.3744 48.743 37.6563 48.6123C37.9557 48.4703 38.3365 47.3141 38.5399 46.692C38.9439 45.4634 39.361 44.1922 40.3856 43.3925C41.416 42.5886 42.8417 42.4665 44.1002 42.3599C44.7629 42.3031 45.9953 42.198 46.1988 41.948C46.3979 41.7037 46.2249 40.4652 46.1421 39.8701C45.9706 38.6443 45.7759 37.2538 46.3514 36.0891C46.9167 34.9429 48.0852 34.2654 49.2158 33.6106C49.7942 33.2754 50.8697 32.6519 50.9467 32.3252C51.0005 32.0212 50.2869 30.9702 49.9817 30.5214C49.274 29.4788 48.4717 28.2985 48.4717 26.9833C48.4717 25.668 49.274 24.4863 49.9817 23.4452C50.2869 22.9964 51.0005 21.9453 50.9467 21.6414C50.8711 21.3161 49.7942 20.6926 49.2158 20.3574C48.0852 19.7026 46.9167 19.0251 46.3514 17.8789C45.7759 16.7142 45.9706 15.3237 46.1421 14.0979C46.2249 13.5028 46.3993 12.2642 46.1988 12.0199C45.9953 11.7714 44.7615 11.6649 44.1002 11.608C42.8417 11.5001 41.4145 11.3779 40.3856 10.574C39.361 9.77437 38.9439 8.50317 38.5399 7.27457C38.3365 6.65245 37.9557 5.49487 37.6563 5.35426C37.3744 5.22359 36.1871 5.66105 35.6159 5.87268C34.4271 6.31157 33.0799 6.80869 31.7821 6.52036C30.5221 6.24055 29.5906 5.28324 28.691 4.35576C28.1925 3.84159 27.3568 2.98228 27.0008 2.98228C26.6447 2.98228 25.8091 3.84159 25.3106 4.35434C24.411 5.2804 23.4795 6.23771 22.2195 6.51894C20.9217 6.80727 19.573 6.31015 18.3842 5.87126C17.8131 5.66105 16.6257 5.22217 16.3438 5.35426C16.0444 5.49629 15.6636 6.65245 15.4602 7.27457C15.0562 8.50317 14.6391 9.77437 13.6145 10.574C12.5841 11.3779 11.1584 11.5001 9.89989 11.608C9.23719 11.6649 8.0048 11.77 7.80134 12.0199C7.60223 12.2642 7.77518 13.5028 7.85801 14.0979C8.0295 15.3237 8.22424 16.7142 7.64874 17.8789C7.08341 19.0251 5.91496 19.7026 4.7843 20.3574C4.20589 20.6926 3.13045 21.3161 3.05343 21.6428C2.99966 21.9467 3.71322 22.9978 4.01841 23.4466C4.72617 24.4892 5.52839 25.6709 5.52839 26.9847C5.52839 28.2985 4.72617 29.4802 4.01841 30.5228C3.71322 30.9716 2.99966 32.0227 3.05343 32.3266C3.129 32.6519 4.20589 33.2754 4.7843 33.6106C5.91496 34.2654 7.08341 34.9429 7.64874 36.0891C8.22424 37.2538 8.0295 38.6443 7.85801 39.8701C7.77518 40.4652 7.60078 41.7037 7.80134 41.948C8.0048 42.1966 9.23864 42.3031 9.89989 42.3599C11.1584 42.4679 12.5856 42.59 13.6145 43.3939C14.6391 44.1936 15.0562 45.4648 15.4602 46.6934C15.6636 47.3155 16.0444 48.4731 16.3438 48.6137C16.6257 48.7458 17.8131 48.3069 18.3842 48.0953C19.3274 47.7473 20.3709 47.3624 21.41 47.3624V47.361Z" fill="#D9081E"/>
<path d="M24.94 40.2931C23.696 40.2931 22.561 39.6753 21.907 38.6413L16.6722 30.372C16.1708 29.5795 16.0153 28.6449 16.2333 27.7373C16.4513 26.8311 17.0181 26.0613 17.829 25.5712C18.64 25.0812 19.5962 24.9293 20.5249 25.1423C21.4376 25.3525 22.2151 25.8923 22.7179 26.6649L24.2206 28.7727C26.9296 22.9536 29.6705 18.934 32.5654 16.5251C34.0027 15.3291 36.3774 15.0976 37.8627 16.7807C38.9774 18.0448 38.9527 19.9296 37.8031 21.3642C34.7076 25.2275 32.1585 30.3251 29.9103 34.8234C29.3231 35.998 28.7694 37.1073 28.2332 38.1342C27.5821 39.3841 26.5517 40.1426 25.3295 40.2732C25.2016 40.2874 25.0708 40.2931 24.9415 40.2931H24.94ZM19.7038 27.8893C19.605 27.8893 19.4829 27.9106 19.3579 27.9858C19.1544 28.108 19.0847 28.2898 19.0614 28.3878C19.0382 28.4858 19.0178 28.6775 19.1428 28.8764L24.3776 37.1456C24.5098 37.3544 24.7627 37.4752 25.0127 37.4482C25.3135 37.4155 25.5533 37.015 25.6419 36.8445C26.1666 35.8375 26.7159 34.7396 27.2972 33.5749C29.608 28.9517 32.2283 23.7106 35.5127 19.6115C35.7859 19.2692 35.8499 18.8502 35.6595 18.6343C35.1799 18.0903 34.4547 18.6812 34.4474 18.6868C31.5336 21.1099 28.7215 25.5357 25.8512 32.2142C25.6463 32.6914 25.1914 33.0224 24.6639 33.0764C24.1378 33.1318 23.6219 32.9002 23.3181 32.4755L20.3113 28.2585C20.2967 28.2372 20.2822 28.2159 20.2677 28.1932C20.1427 27.9944 19.9567 27.9262 19.8564 27.9035C19.8186 27.8949 19.7648 27.8864 19.7023 27.8864L19.7038 27.8893Z" fill="#D9081E"/>
<path d="M27.0008 45.7422C21.9113 45.7422 17.1009 43.7807 13.4575 40.2199C9.81267 36.6577 7.80713 31.9578 7.80713 26.9837C7.80713 23.8802 8.68492 20.7938 10.4158 17.8097C10.8314 17.0938 11.763 16.841 12.4955 17.2487C13.2279 17.6549 13.4851 18.5653 13.0695 19.2812C11.6017 21.8108 10.8576 24.4029 10.8576 26.9837C10.8576 35.6833 18.0993 42.7609 27.0008 42.7609C31.7821 42.7609 36.3178 40.5935 39.4468 36.8153C39.9772 36.1748 40.9378 36.0768 41.5933 36.5938C42.2487 37.1122 42.349 38.051 41.82 38.6916C38.1083 43.1728 32.7078 45.7436 27.0008 45.7436V45.7422Z" fill="#D9081E"/>
<path d="M43.9564 32.8411C43.8285 32.8411 43.6977 32.8254 43.5669 32.7913C42.7516 32.5826 42.2647 31.7659 42.4784 30.9705C42.7966 29.7859 43.003 28.0588 43.003 26.5717C43.003 17.9558 35.9734 11.2064 27.0008 11.2064C23.4853 11.2064 19.932 12.4747 16.9949 14.7771C16.338 15.2927 15.3774 15.189 14.8498 14.547C14.3223 13.905 14.4284 12.9662 15.0852 12.4506C18.5615 9.72494 22.7935 8.22363 27.0008 8.22363C32.1018 8.22363 36.8832 10.1084 40.4626 13.53C44.0697 16.9772 46.0564 21.609 46.0564 26.5731C46.0564 28.3215 45.8166 30.2972 45.4314 31.7304C45.2512 32.3993 44.6336 32.8425 43.9564 32.8425V32.8411Z" fill="#D9081E"/>
</g>
<defs>
<clipPath id="clip0_22_1609">
<rect width="54" height="74" fill="white"/>
</clipPath>
</defs>
</svg>
