<svg width="20" height="16" viewBox="0 0 20 16" fill="none" xmlns="http://www.w3.org/2000/svg">
<path d="M9.81939 15.4479C9.81785 15.4479 9.81616 15.4479 9.81448 15.4479C9.25999 15.4435 4.358 15.3915 2.96916 14.9549C1.99855 14.6517 1.23235 13.762 0.970737 12.6336C0.607336 11.0477 0.630469 7.99449 0.632993 7.75068C0.630609 7.50802 0.607195 4.42951 0.969615 2.83061C0.970036 2.82915 0.970316 2.82752 0.970737 2.82605C1.22941 1.71052 2.01285 0.793324 2.96678 0.489221C2.96916 0.488407 2.97169 0.487755 2.97407 0.48694C4.3472 0.0674546 9.25887 0.016119 9.81448 0.0117188H9.82444C10.3803 0.016119 15.2954 0.0681064 16.6714 0.505355C17.6395 0.807828 18.4052 1.69634 18.6675 2.82328C19.0445 4.42332 19.0096 7.50851 19.0058 7.76894C19.0085 8.02545 19.0305 11.0513 18.6692 12.6452C18.6689 12.6468 18.6685 12.6483 18.6682 12.6497C18.4064 13.7781 17.6404 14.6678 16.6686 14.9714C16.6674 14.9719 16.666 14.9722 16.6647 14.9727C15.2917 15.392 10.3799 15.4434 9.82444 15.4479C9.82275 15.4479 9.82107 15.4479 9.81939 15.4479ZM2.35733 3.25857C2.03823 4.6699 2.06837 7.70913 2.06865 7.73977V7.76177C2.05912 8.60465 2.09263 11.0456 2.35747 12.2017C2.48589 12.7553 2.86373 13.1939 3.34294 13.3437C4.36767 13.6658 8.36018 13.7672 9.81939 13.7791C11.2824 13.7672 15.2808 13.6686 16.2979 13.3593C16.7756 13.209 17.1522 12.772 17.2815 12.2177C17.5466 11.0446 17.5798 8.61557 17.5701 7.77806C17.5701 7.76926 17.5701 7.76046 17.5703 7.75166C17.5834 6.89868 17.5575 4.42919 17.2827 3.26379C17.2824 3.26265 17.2822 3.26151 17.282 3.26037C17.153 2.70431 16.775 2.26576 16.2958 2.11599C15.2811 1.79347 11.2821 1.69243 9.81939 1.68053C8.35737 1.69243 4.3629 1.79086 3.34266 2.09986C2.87257 2.25142 2.48617 2.70562 2.35733 3.25857ZM17.975 12.4327H17.9754H17.975ZM7.98963 11.109V4.35047L13.0144 7.72982L7.98963 11.109Z" fill="white"/>
</svg>
