<svg width="520" height="508" viewBox="0 0 520 508" fill="none" xmlns="http://www.w3.org/2000/svg">
<mask id="mask0_59_1844" style="mask-type:alpha" maskUnits="userSpaceOnUse" x="44" y="34" width="438" height="430">
<path d="M191.855 43.2289L51.0171 287.167C39.7123 306.747 91.6917 363.684 170.23 409.028C248.767 454.372 324.042 470.96 335.371 451.338L476.208 207.401M370.481 180.057C353.98 172.067 336.402 162.797 318.396 152.401C309.159 147.068 300.229 141.693 291.651 136.301M167.022 86.24L153.187 78.2526C145.312 73.7059 135.422 76.1885 131.07 83.7258L129.627 86.2245C80.5058 171.306 122.56 287.508 210.974 338.554C299.388 389.599 421.049 367.919 470.171 282.837L471.613 280.339C475.989 272.76 473.127 262.97 465.295 258.448L451.46 250.461M65.1835 262.63C53.8787 282.21 104.817 340.95 183.355 386.294C261.893 431.637 338.232 446.382 349.537 426.801M356.763 295.525C352.033 303.718 341.282 306.413 332.726 301.473L332.215 301.178C323.702 296.263 320.595 285.621 325.348 277.387L343.062 246.706C347.792 238.513 344.751 227.854 336.195 222.915L335.684 222.62C327.171 217.704 316.401 220.334 311.647 228.568L305.711 238.85C300.981 247.043 290.23 249.738 281.674 244.798C273.16 239.883 270.053 229.241 274.807 221.007L285.851 201.877C290.581 193.685 287.541 183.026 278.984 178.086L278.473 177.791C269.96 172.876 259.19 175.506 254.436 183.74L212.221 256.86C207.49 265.053 196.739 267.748 188.183 262.808L187.672 262.513C179.159 257.598 176.052 246.956 180.805 238.722L246.317 125.253C250.81 117.47 248.682 107.393 241.252 101.683C206.393 75.0583 186.373 52.5211 191.741 43.2223C200.374 28.2706 271.013 52.8876 349.551 98.2314C428.089 143.575 484.727 192.442 476.095 207.394C471.791 214.849 452.053 212.466 423.655 202.57C417.227 200.334 410.223 202.734 406.935 208.428L356.678 295.476L356.763 295.525Z" stroke="#D34C5A" stroke-width="9.00004" stroke-linecap="round" stroke-linejoin="round"/>
</mask>
<g mask="url(#mask0_59_1844)">
<g filter="url(#filter0_d_59_1844)">
<rect x="163" y="-215" width="849" height="548" fill="#D34C5A"/>
</g>
</g>
<defs>
<filter id="filter0_d_59_1844" x="130" y="-244" width="915" height="614" filterUnits="userSpaceOnUse" color-interpolation-filters="sRGB">
<feFlood flood-opacity="0" result="BackgroundImageFix"/>
<feColorMatrix in="SourceAlpha" type="matrix" values="0 0 0 0 0 0 0 0 0 0 0 0 0 0 0 0 0 0 127 0" result="hardAlpha"/>
<feOffset dy="4"/>
<feGaussianBlur stdDeviation="16.5"/>
<feComposite in2="hardAlpha" operator="out"/>
<feColorMatrix type="matrix" values="0 0 0 0 0 0 0 0 0 0 0 0 0 0 0 0 0 0 0.1 0"/>
<feBlend mode="normal" in2="BackgroundImageFix" result="effect1_dropShadow_59_1844"/>
<feBlend mode="normal" in="SourceGraphic" in2="effect1_dropShadow_59_1844" result="shape"/>
</filter>
</defs>
</svg>
