<svg width="33" height="33" viewBox="0 0 33 33" fill="none" xmlns="http://www.w3.org/2000/svg">
<path d="M30.1317 20.4002L24.1701 17.8469C22.8704 17.284 21.3387 17.6583 20.4548 18.7536L18.789 20.7854C16.0705 19.2236 13.7933 16.9492 12.2325 14.2897L14.2693 12.6231C15.3566 11.7364 15.7317 10.2152 15.1811 8.92037L12.6113 2.88628C11.9946 1.4792 10.4659 0.711367 8.97676 1.05525L3.43716 2.33255C1.98746 2.6637 0.973633 3.93553 0.973633 5.4251C0.973633 20.0964 12.9149 32.0263 27.6001 32.0263C29.0911 32.0263 30.3642 31.014 30.6416 29.5681L31.9201 24.0283C32.3232 22.5351 31.5462 21.0067 30.1317 20.4002ZM29.1361 23.3721L27.8557 28.9161C27.8273 28.9828 27.7277 29.1151 27.5996 29.1151C14.5231 29.1151 3.88707 18.4892 3.88707 5.42516C3.88707 5.29816 3.96581 5.19869 4.09008 5.17025L9.63514 3.89174C9.65411 3.887 9.67403 3.88511 9.693 3.88511C9.79827 3.88511 9.89692 3.94861 9.93869 4.04334L12.4969 10.0071C12.5425 10.1142 12.5121 10.2392 12.421 10.3141L9.46061 12.6855C8.937 13.1138 8.77764 13.8464 9.07547 14.4529C11.0794 18.5304 14.4336 21.8825 18.5156 23.884C19.068 24.1815 19.8566 24.0223 20.2858 23.4992L22.7147 20.5352C22.7821 20.45 22.9082 20.4177 23.0135 20.467L28.9787 23.0198C29.0936 23.1234 29.1603 23.2508 29.1361 23.3721Z" fill="white"/>
</svg>
