<svg width="18" height="18" viewBox="0 0 18 18" fill="none" xmlns="http://www.w3.org/2000/svg">
<path d="M17.727 16.5586L13.0148 11.8477C14.0346 10.5996 14.5973 9.02812 14.5973 7.3125C14.5973 3.27305 11.3223 0 7.28282 0C3.24334 0 0 3.2741 0 7.3125C0 11.3509 3.27464 14.625 7.28282 14.625C8.99855 14.625 10.5726 14.0305 11.8192 13.0416L16.5314 17.7525C16.7283 17.9191 16.9464 18 17.1609 18C17.3754 18 17.5927 17.9176 17.7576 17.7528C18.0857 17.4234 18.0857 16.8891 17.727 16.5586ZM1.68796 7.3125C1.68796 4.21102 4.21215 1.6875 7.31447 1.6875C10.4168 1.6875 12.941 4.21102 12.941 7.3125C12.941 10.414 10.4168 12.9375 7.31447 12.9375C4.21215 12.9375 1.68796 10.4133 1.68796 7.3125Z" fill="white"/>
</svg>
