<svg width="37" height="39" viewBox="0 0 37 39" fill="none" xmlns="http://www.w3.org/2000/svg">
<path d="M31.1387 1H2.5105C1.67925 1 1 3.02494 1 5.52069C1 8.01644 1.6745 10.0414 2.5105 10.0414H31.1387C31.97 10.0414 32.6492 8.01644 32.6492 5.52069C32.6492 3.02494 31.9747 1 31.1387 1Z" stroke="#C00014" stroke-width="1.425" stroke-linecap="round" stroke-linejoin="round"/>
<path d="M32.6494 5.49805H34.2216C34.9389 5.49805 35.5184 6.05571 35.5184 6.74593V10.4027C35.5184 11.0198 35.1384 11.5774 34.5494 11.8197L18.0527 18.6167C17.3117 18.923 16.8271 19.6269 16.8271 20.404V22.0952" stroke="#C00014" stroke-width="1.425" stroke-linecap="round" stroke-linejoin="round"/>
<path d="M8.6145 1C6.7525 3.1895 6.05425 7.49078 4.1875 10.0414" stroke="#C00014" stroke-width="1.425" stroke-linecap="round" stroke-linejoin="round"/>
<path d="M16.8226 37.5672C15.0556 37.5672 13.6211 36.1867 13.6211 34.4863V23.4657C13.6211 22.7069 14.2623 22.0898 15.0508 22.0898H18.5991C19.3876 22.0898 20.0289 22.7069 20.0289 23.4657V34.4863C20.0289 36.1867 18.5943 37.5672 16.8273 37.5672H16.8226Z" stroke="#C00014" stroke-width="1.425" stroke-linecap="round" stroke-linejoin="round"/>
<path d="M17.9483 34.0667C17.9483 33.4679 17.4448 32.9834 16.8225 32.9834C16.2003 32.9834 15.6968 33.4679 15.6968 34.0667C15.6968 34.6655 16.2003 35.15 16.8225 35.15C17.4448 35.15 17.9483 34.6655 17.9483 34.0667Z" stroke="#C00014" stroke-width="1.425" stroke-linecap="round" stroke-linejoin="round"/>
<path d="M15.5637 1C13.7017 3.1895 13.0035 7.49078 11.1367 10.0414" stroke="#C00014" stroke-width="1.425" stroke-linecap="round" stroke-linejoin="round"/>
<path d="M22.5129 1C20.6509 3.1895 19.9527 7.49078 18.0859 10.0414" stroke="#C00014" stroke-width="1.425" stroke-linecap="round" stroke-linejoin="round"/>
<path d="M29.4622 1C27.6002 3.1895 26.9019 7.49078 25.0352 10.0414" stroke="#C00014" stroke-width="1.425" stroke-linecap="round" stroke-linejoin="round"/>
</svg>
