<svg width="39" height="43" viewBox="0 0 39 43" fill="none" xmlns="http://www.w3.org/2000/svg">
<path d="M28.3415 29.9385V36.3446L16.8282 41.4169L4.5957 36.3446V30.0042" stroke="#C00014" stroke-width="1.575" stroke-linecap="round" stroke-linejoin="round"/>
<path d="M4.5957 23.876L16.8282 28.726L28.3415 23.876" stroke="#C00014" stroke-width="1.575" stroke-linecap="round" stroke-linejoin="round"/>
<path d="M16.8291 28.7256V41.4165" stroke="#C00014" stroke-width="1.575" stroke-linecap="round" stroke-linejoin="round"/>
<path d="M16.8288 28.726L13.2325 33.9196L1 28.3774L4.59624 23.876" stroke="#C00014" stroke-width="1.575" stroke-linecap="round" stroke-linejoin="round"/>
<path d="M26.3467 23.2393L28.3417 23.8758" stroke="#C00014" stroke-width="1.575" stroke-linecap="round" stroke-linejoin="round"/>
<path d="M4.5957 23.8761L7.34673 22.9971" stroke="#C00014" stroke-width="1.575" stroke-linecap="round" stroke-linejoin="round"/>
<path d="M28.3423 23.876L31.5816 28.3774L20.7876 33.571L16.8291 28.726" stroke="#C00014" stroke-width="1.575" stroke-linecap="round" stroke-linejoin="round"/>
<path d="M22.7769 26.22C22.9606 24.9974 23.2336 23.7799 23.9896 22.5572C25.5856 19.9706 28.7251 20.1575 30.6571 20.5515C31.6074 20.7486 32.5734 20.2838 32.9724 19.43L34.3321 16.5402L26.5989 13.1704L18.8656 9.80566L17.5059 12.6955C17.1069 13.5493 17.3799 14.5496 18.1621 15.1104C19.7424 16.2421 21.9631 18.3892 20.9971 21.2538C20.0679 24.0021 17.8419 25.3005 16.4716 27.574C16.3089 27.8418 16.1776 28.1247 16.0674 28.4227" stroke="#C00014" stroke-width="1.575" stroke-linecap="round" stroke-linejoin="round"/>
<path d="M34.3272 16.5407L37.2777 10.2609C37.493 9.80113 37.2777 9.26562 36.8052 9.05848L23.0555 3.07171C22.5777 2.86457 22.0212 3.07171 21.806 3.5264L18.8555 9.80619" stroke="#C00014" stroke-width="1.575" stroke-linecap="round" stroke-linejoin="round"/>
<path d="M17.915 11.8115L33.3868 18.546" stroke="#C00014" stroke-width="1.575" stroke-linecap="round" stroke-linejoin="round"/>
<path d="M24.3675 3.64746L22.5195 7.56792" stroke="#C00014" stroke-width="1.575" stroke-linecap="round" stroke-linejoin="round"/>
<path d="M26.594 4.61719L25.208 7.55753" stroke="#C00014" stroke-width="1.575" stroke-linecap="round" stroke-linejoin="round"/>
<path d="M28.8193 5.58691L26.3623 10.8108" stroke="#C00014" stroke-width="1.575" stroke-linecap="round" stroke-linejoin="round"/>
<path d="M31.046 6.55762L29.3555 10.1497" stroke="#C00014" stroke-width="1.575" stroke-linecap="round" stroke-linejoin="round"/>
<path d="M33.2714 7.52246L31.2764 11.7713" stroke="#C00014" stroke-width="1.575" stroke-linecap="round" stroke-linejoin="round"/>
<path d="M35.503 8.49219L34.4268 10.7859" stroke="#C00014" stroke-width="1.575" stroke-linecap="round" stroke-linejoin="round"/>
<path d="M24.4469 9.17969L24.4414 9.19068" stroke="#C00014" stroke-width="1.575" stroke-linecap="round" stroke-linejoin="round"/>
<path d="M33.6605 12.4082L33.6553 12.4187" stroke="#C00014" stroke-width="1.575" stroke-linecap="round" stroke-linejoin="round"/>
<path d="M7.06886 13.9789C5.67761 14.181 4.21812 13.888 3.07362 13.0796C1.88187 12.241 1.13638 10.8719 1.04713 9.45221C0.973628 8.28012 1.3621 7.15854 1.7086 6.04707C2.04985 4.94065 2.32285 3.79383 2.03935 2.647C1.9606 2.32871 1.84512 2.02559 1.69812 1.73256C1.61412 1.56584 1.52486 1.40922 1.42511 1.25261C1.40411 1.22229 1.25712 1.03031 1.27287 1.0101C1.28337 0.994942 1.38312 1.00505 1.39887 1C1.49337 1 1.58786 1 1.68761 1C2.48561 1.02021 3.28362 1.13641 4.06062 1.30313C5.24712 1.56079 6.40211 1.96495 7.46261 2.54595C8.72261 3.23809 9.83037 4.18284 10.6494 5.34483C10.8751 5.66312 11.0799 5.99655 11.2636 6.34514C12.0039 7.74458 11.9724 9.44716 11.3214 10.8719C11.0694 11.4225 10.7229 11.9227 10.3081 12.3471" stroke="#C00014" stroke-width="1.575" stroke-linecap="round" stroke-linejoin="round"/>
<path d="M10.2874 12.3371C10.2874 12.3371 9.65211 12.3674 8.61261 12.8726C7.68861 13.3223 7.05859 13.9083 7.05859 13.9083L7.56786 16.5202C7.56786 16.5202 8.31335 15.8786 9.7571 15.1713C11.1956 14.4691 12.1773 14.267 12.1773 14.267L10.2874 12.332V12.3371Z" stroke="#C00014" stroke-width="1.575" stroke-linecap="round" stroke-linejoin="round"/>
<path d="M11.6837 26.6844C9.68874 23.0519 8.10325 19.4093 7.5625 16.5195" stroke="#C00014" stroke-width="1.575" stroke-linecap="round" stroke-linejoin="round"/>
<path d="M12.1768 14.2715C14.0825 16.2014 16.0355 19.1519 17.7995 22.4307" stroke="#C00014" stroke-width="1.575" stroke-linecap="round" stroke-linejoin="round"/>
<path d="M4.2078 10.8571C3.7143 10.3064 3.43605 9.59402 3.4203 8.85136C3.4098 8.17943 3.61981 7.5277 3.86131 6.87598" stroke="#C00014" stroke-width="1.575" stroke-linecap="round" stroke-linejoin="round"/>
<path d="M12.9013 23.7848C12.014 22.0771 11.2423 20.3897 10.6543 18.8135" stroke="#C00014" stroke-width="1.575" stroke-linecap="round" stroke-linejoin="round"/>
</svg>
