<svg width="40" height="37" viewBox="0 0 40 37" fill="none" xmlns="http://www.w3.org/2000/svg">
<path d="M4.11523 4.00195V31.091C4.11523 33.2654 11.1823 35.508 19.9038 35.508C28.6254 35.508 35.6924 33.27 35.6924 31.091V4.00195" stroke="#C00014" stroke-width="1.41814" stroke-linecap="round" stroke-linejoin="round"/>
<path d="M25.5719 6.80859C23.8134 6.93658 21.9036 7.00971 19.9041 7.00971C18.8783 7.00971 17.8761 6.99143 16.9023 6.95487" stroke="#C00014" stroke-width="1.41814" stroke-linecap="round" stroke-linejoin="round"/>
<path d="M4.11518 8.77832H2.57886C1.70434 8.77832 1 9.46066 1 10.2977V10.5752C1 20.0233 10.0903 27.6792 19.9085 27.6792C29.7268 27.6792 38.817 20.0233 38.817 10.5752V10.2977C38.817 9.45611 38.108 8.77832 37.2382 8.77832H35.7018" stroke="#C00014" stroke-width="1.41814" stroke-linecap="round" stroke-linejoin="round"/>
<path d="M29.9818 17.0851C29.9818 17.9949 29.216 18.7364 28.2658 18.7364H28.2091C27.2637 18.7364 26.4932 17.9995 26.4932 17.0851V13.678C26.4932 12.7682 25.7274 12.0267 24.7772 12.0267H24.7205C23.7751 12.0267 23.0045 12.7636 23.0045 13.678V14.8197C23.0045 15.7295 22.2387 16.471 21.2886 16.471C20.3432 16.471 19.5726 15.7341 19.5726 14.8197V12.6954C19.5726 11.7856 18.8068 11.0441 17.8567 11.0441H17.8C16.8545 11.0441 16.084 11.781 16.084 12.6954V13.6052V20.8153C16.084 21.7251 15.3182 22.4666 14.3681 22.4666H14.3114C13.3659 22.4666 12.5954 21.7296 12.5954 20.8153V8.21465C12.5954 7.35034 11.9336 6.61341 11.0402 6.49514C6.85666 5.95381 4.10547 5.03947 4.10547 4.00686C4.10547 2.34649 11.1725 1 19.8941 1C28.6156 1 35.6827 2.34649 35.6827 4.00686C35.6827 4.83477 33.9242 5.58535 31.0832 6.12667C30.4403 6.2495 29.9723 6.78627 29.9723 7.41858V17.0851H29.9818Z" stroke="#C00014" stroke-width="1.41814" stroke-linecap="round" stroke-linejoin="round"/>
<path d="M4.11523 28.3662C4.11523 30.5406 11.1823 32.9834 19.9038 32.9834C28.6254 32.9834 35.6924 30.5406 35.6924 28.3662" stroke="#C00014" stroke-width="1.41814" stroke-linecap="round" stroke-linejoin="round"/>
</svg>
