<svg width="39" height="39" viewBox="0 0 39 39" fill="none" xmlns="http://www.w3.org/2000/svg">
<path d="M7.33689 31.4705H31.1914C31.8849 31.4705 32.4501 29.7838 32.4501 27.704C32.4501 25.6242 31.8849 23.9375 31.1914 23.9375H7.33689C6.64339 23.9375 6.07812 25.6242 6.07812 27.704C6.07812 29.7838 6.64339 31.4705 7.33689 31.4705Z" stroke="#C00014" stroke-width="1.425" stroke-linecap="round" stroke-linejoin="round"/>
<path d="M6.07773 27.7217H4.76674C4.16824 27.7217 3.68848 27.2555 3.68848 26.6841V23.6353C3.68848 23.1233 4.00673 22.6571 4.49598 22.456L18.2425 16.7925C18.86 16.5366 19.2637 15.9515 19.2637 15.3024V13.8945" stroke="#C00014" stroke-width="1.425" stroke-linecap="round" stroke-linejoin="round"/>
<path d="M26.1035 31.4705C27.652 29.6466 28.2363 26.063 29.7943 23.9375" stroke="#C00014" stroke-width="1.425" stroke-linecap="round" stroke-linejoin="round"/>
<path d="M19.2642 1C20.7367 1 21.9337 2.15188 21.9337 3.56889V12.7474C21.9337 13.3782 21.4017 13.8947 20.7415 13.8947H17.787C17.1315 13.8947 16.5947 13.3828 16.5947 12.7474V3.56889C16.5947 2.15188 17.7917 1 19.2642 1Z" stroke="#C00014" stroke-width="1.425" stroke-linecap="round" stroke-linejoin="round"/>
<path d="M20.3135 31.4705C21.862 29.6466 22.4462 26.063 24.0042 23.9375" stroke="#C00014" stroke-width="1.425" stroke-linecap="round" stroke-linejoin="round"/>
<path d="M14.5234 31.4705C16.0719 29.6466 16.6562 26.063 18.2142 23.9375" stroke="#C00014" stroke-width="1.425" stroke-linecap="round" stroke-linejoin="round"/>
<path d="M8.73242 31.4705C10.2809 29.6466 10.8652 26.063 12.4232 23.9375" stroke="#C00014" stroke-width="1.425" stroke-linecap="round" stroke-linejoin="round"/>
<path d="M19.2637 3.95703V4.09043" stroke="#C00014" stroke-width="1.425" stroke-linecap="round" stroke-linejoin="round"/>
<path d="M7.33651 31.4697L1 37.5674" stroke="#C00014" stroke-width="1.425" stroke-linecap="round" stroke-linejoin="round"/>
<path d="M31.1914 31.4697L37.5279 37.5674" stroke="#C00014" stroke-width="1.425" stroke-linecap="round" stroke-linejoin="round"/>
</svg>
