<svg width="12" height="11" viewBox="0 0 12 11" fill="none" xmlns="http://www.w3.org/2000/svg">
<path d="M0.24 10.08L2 2.72L2.32 4.4C1.70667 4.4 1.18667 4.21333 0.76 3.84C0.36 3.44 0.16 2.92 0.16 2.28C0.16 1.64 0.36 1.12 0.76 0.719998C1.18667 0.319998 1.69333 0.119998 2.28 0.119998C2.89333 0.119998 3.38667 0.333332 3.76 0.76C4.16 1.16 4.36 1.66667 4.36 2.28C4.36 2.49333 4.34667 2.70666 4.32 2.92C4.29333 3.13333 4.24 3.37333 4.16 3.64C4.10667 3.88 4.01333 4.18667 3.88 4.56L2.16 10.08H0.24ZM7.04 10.08L8.8 2.72L9.12 4.4C8.50667 4.4 7.98667 4.21333 7.56 3.84C7.16 3.44 6.96 2.92 6.96 2.28C6.96 1.64 7.16 1.12 7.56 0.719998C7.98667 0.319998 8.49333 0.119998 9.08 0.119998C9.69333 0.119998 10.1867 0.333332 10.56 0.76C10.96 1.16 11.16 1.66667 11.16 2.28C11.16 2.49333 11.1467 2.70666 11.12 2.92C11.0933 3.13333 11.04 3.37333 10.96 3.64C10.9067 3.88 10.8133 4.18667 10.68 4.56L8.96 10.08H7.04Z" fill="white"/>
</svg>
