<svg width="59" height="69" viewBox="0 0 59 69" fill="none" xmlns="http://www.w3.org/2000/svg">
<g clip-path="url(#clip0_22_1643)">
<path d="M20.5468 26.6833L31.4277 35.291L28.4282 35.5162L45.4486 16.1572C45.8754 15.6723 46.6165 15.623 47.1035 16.048C47.5691 16.4543 47.632 17.1484 47.2654 17.6334L31.6418 38.1274L31.6057 38.174C30.9528 39.0307 29.7246 39.1985 28.8644 38.5484C28.7868 38.4898 28.7078 38.4192 28.6423 38.3525L18.9735 28.4153C18.5226 27.9516 18.5334 27.2109 19.0003 26.7619C19.4297 26.3476 20.0933 26.325 20.5482 26.686L20.5468 26.6833Z" fill="#D9081E"/>
<path d="M29.5 63.7992C21.62 63.7992 14.2122 60.743 8.63995 55.1955C3.06907 49.6467 0 42.27 0 34.423C0 26.5761 3.06907 19.1994 8.63995 13.6506C14.2122 8.10173 21.62 5.04688 29.5 5.04688C37.38 5.04688 44.7878 8.10306 50.36 13.6506C55.9323 19.1981 59 26.5761 59 34.423C59 42.27 55.9309 49.6467 50.36 55.1955C44.7878 60.7443 37.38 63.7992 29.5 63.7992ZM29.5 7.8446C14.7834 7.8446 2.80952 19.7683 2.80952 34.423C2.80952 49.0778 14.7834 61.0015 29.5 61.0015C44.2166 61.0015 56.1905 49.0778 56.1905 34.423C56.1905 19.7683 44.2166 7.8446 29.5 7.8446Z" fill="#D9081E"/>
<path d="M30.3198 14.9718C29.5438 14.9718 28.915 14.3457 28.915 13.573V9.89594C28.915 9.12323 29.5438 8.49707 30.3198 8.49707C31.0958 8.49707 31.7246 9.12323 31.7246 9.89594V13.573C31.7246 14.3457 31.0958 14.9718 30.3198 14.9718Z" fill="#D9081E"/>
<path d="M30.3559 60.3615C29.58 60.3615 28.9512 59.7353 28.9512 58.9626V55.2856C28.9512 54.5129 29.58 53.8867 30.3559 53.8867C31.1319 53.8867 31.7607 54.5129 31.7607 55.2856V58.9626C31.7607 59.7353 31.1319 60.3615 30.3559 60.3615Z" fill="#D9081E"/>
<path d="M8.45665 35.8456H4.76414C3.98817 35.8456 3.35938 35.2194 3.35938 34.4467C3.35938 33.674 3.98817 33.0479 4.76414 33.0479H8.45665C9.23262 33.0479 9.86142 33.674 9.86142 34.4467C9.86142 35.2194 9.23262 35.8456 8.45665 35.8456Z" fill="#D9081E"/>
<path d="M54.0397 35.8095H50.3471C49.5712 35.8095 48.9424 35.1833 48.9424 34.4106C48.9424 33.6379 49.5712 33.0117 50.3471 33.0117H54.0397C54.8156 33.0117 55.4444 33.6379 55.4444 34.4106C55.4444 35.1833 54.8156 35.8095 54.0397 35.8095Z" fill="#D9081E"/>
<path d="M46.9043 68.9996C46.4454 68.9996 45.9865 68.9197 45.5424 68.7585C44.5443 68.3974 43.7483 67.67 43.3001 66.7121L41.9435 63.8145C41.6157 63.1137 41.9194 62.2824 42.6231 61.956C43.3268 61.6296 44.1617 61.932 44.4895 62.6328L45.8461 65.5304C45.9772 65.8115 46.2113 66.0233 46.5029 66.1299C46.7946 66.2352 47.1103 66.2218 47.3926 66.0913L47.5385 66.0233C47.8194 65.8928 48.0335 65.661 48.1405 65.3692C48.2475 65.0774 48.2328 64.763 48.1017 64.4833L46.7451 61.5856C46.4173 60.8848 46.721 60.0535 47.4247 59.7271C48.1271 59.4007 48.9633 59.7031 49.2911 60.4039L50.6477 63.3016C51.0959 64.2594 51.1427 65.3332 50.7801 66.3271C50.4176 67.3196 49.6871 68.1136 48.7251 68.5599L48.5793 68.6279C48.0455 68.8757 47.4756 69.0009 46.903 69.0009L46.9043 68.9996Z" fill="#D9081E"/>
<path d="M12.3966 68.9999C11.824 68.9999 11.2541 68.8747 10.7203 68.6269L10.5758 68.559C9.61386 68.1127 8.88338 67.3186 8.52082 66.3261C8.15826 65.3323 8.20508 64.2585 8.65327 63.3006L10.0099 60.4029C10.3376 59.7022 11.1738 59.3997 11.8762 59.7261C12.5799 60.0525 12.8836 60.8852 12.5558 61.5846L11.1992 64.4823C11.0681 64.7634 11.0534 65.0778 11.1604 65.3682C11.2675 65.6587 11.4802 65.8918 11.7625 66.0224L11.907 66.0903C12.1893 66.2209 12.505 66.2355 12.798 66.1289C13.091 66.0224 13.3238 65.8105 13.4549 65.5294L14.8115 62.6318C15.1393 61.931 15.9754 61.6286 16.6778 61.955C17.3815 62.2814 17.6852 63.1141 17.3574 63.8135L16.0008 66.7111C15.5527 67.669 14.7566 68.3951 13.7586 68.7575C13.3157 68.9187 12.8555 68.9986 12.3966 68.9986V68.9999Z" fill="#D9081E"/>
<path d="M54.8838 14.9155C54.6885 14.9155 54.4892 14.8742 54.2992 14.7876C53.5941 14.4652 53.2837 13.6352 53.6075 12.9331L55.6451 8.50201C56.0063 7.73196 56.0197 6.89131 55.6852 6.12127C55.3534 5.35523 54.7326 4.78902 53.938 4.52657C53.9339 4.52657 53.9299 4.5239 53.9259 4.52257C52.7044 4.12289 51.3866 4.55854 50.6481 5.60702L49.1136 7.78392C48.6681 8.41674 47.7918 8.56862 47.1563 8.12498C46.5208 7.68134 46.3683 6.80871 46.8138 6.17589L48.3483 3.99899C49.7999 1.93933 52.3874 1.08003 54.7888 1.8594L54.8036 1.86473C56.3555 2.37231 57.6158 3.51938 58.2633 5.01151C58.9108 6.50363 58.8854 8.20491 58.1924 9.67705L56.1588 14.0975C55.922 14.6104 55.4136 14.9141 54.8811 14.9141L54.8838 14.9155Z" fill="#D9081E"/>
<path d="M5.19207 14.5161C4.6596 14.5161 4.14987 14.2137 3.9144 13.6994L1.87683 9.26835C1.18917 7.80687 1.16375 6.10559 1.81127 4.61347C2.4588 3.12134 3.72041 1.97427 5.271 1.46669C5.27635 1.46535 5.28171 1.46402 5.28706 1.46136C7.68853 0.683322 10.2746 1.54129 11.7262 3.60229L13.2608 5.77919C13.7063 6.41201 13.5524 7.2833 12.9183 7.72827C12.2828 8.17191 11.4065 8.0187 10.961 7.38721L9.42642 5.21031C8.68792 4.16183 7.37012 3.72619 6.14864 4.12586C6.14463 4.12719 6.14062 4.12853 6.1366 4.12986C5.34191 4.39231 4.72248 4.95852 4.38935 5.72456C4.05622 6.49327 4.06826 7.33526 4.42547 8.09464L6.46839 12.5364C6.79082 13.2385 6.48177 14.0685 5.77672 14.3909C5.58674 14.4775 5.38873 14.5188 5.19207 14.5188V14.5161Z" fill="#D9081E"/>
<path d="M33.9194 2.79773H26.5932C25.8173 2.79773 25.1885 2.17157 25.1885 1.39886C25.1885 0.626158 25.8173 0 26.5932 0H33.9194C34.6954 0 35.3242 0.626158 35.3242 1.39886C35.3242 2.17157 34.6954 2.79773 33.9194 2.79773Z" fill="#D9081E"/>
<path d="M30.2563 7.41571C29.4804 7.41571 28.8516 6.78955 28.8516 6.01684V2.34515C28.8516 1.57245 29.4804 0.946289 30.2563 0.946289C31.0323 0.946289 31.6611 1.57245 31.6611 2.34515V6.01684C31.6611 6.78955 31.0323 7.41571 30.2563 7.41571Z" fill="#D9081E"/>
</g>
<defs>
<clipPath id="clip0_22_1643">
<rect width="59" height="69" fill="white"/>
</clipPath>
</defs>
</svg>
