<svg width="88" height="73" viewBox="0 0 88 73" fill="none" xmlns="http://www.w3.org/2000/svg">
<path d="M51.2015 29.4717C51.2015 32.2258 49.6394 34.6269 47.333 35.9182" stroke="#D9081E" stroke-width="3" stroke-linecap="round" stroke-linejoin="round"/>
<path d="M43.9471 2C43.9471 13.7732 30.3604 18.2021 30.3604 29.8442C30.3604 37.0675 36.4408 42.9188 43.9471 42.9188C51.4533 42.9188 57.5338 37.0675 57.5338 29.8442C57.5338 18.2021 43.9471 13.7732 43.9471 2Z" stroke="#D9081E" stroke-width="3" stroke-linecap="round" stroke-linejoin="round"/>
<path d="M45.5611 51.5036L47.6893 55.6399C47.8885 56.0334 48.2869 56.3159 48.7376 56.3764L53.4867 57.0422C54.9649 57.2541 55.5625 58.9994 54.4827 60.0082L51.044 63.2264C50.719 63.5392 50.5618 63.9831 50.6457 64.4169L51.4529 68.9668C51.7045 70.3892 50.1634 71.4687 48.832 70.7928L44.5861 68.6439C44.1773 68.4422 43.695 68.4422 43.2862 68.6439L39.0403 70.7928C37.7194 71.4586 36.1678 70.3792 36.4194 68.9668L37.2267 64.4169C37.3 63.9831 37.1533 63.5392 36.8283 63.2264L33.3897 60.0082C32.3203 58.9994 32.9074 57.2541 34.3856 57.0422L39.1347 56.3764C39.5855 56.3159 39.9838 56.0334 40.183 55.6399L42.3112 51.5036C42.9717 50.2123 44.8902 50.2123 45.5506 51.5036H45.5611Z" stroke="#D9081E" stroke-width="3" stroke-linecap="round" stroke-linejoin="round"/>
<path d="M19.5196 41.7497L21.6478 45.886C21.847 46.2794 22.2453 46.5619 22.6961 46.6225L27.4452 47.2883C28.9234 47.5002 29.521 49.2455 28.4412 50.2543L25.0025 53.4725C24.6775 53.7853 24.5203 54.2292 24.6042 54.663L25.4114 59.2129C25.663 60.6353 24.1219 61.7148 22.7905 61.0389L18.5446 58.89C18.1358 58.6883 17.6535 58.6883 17.2447 58.89L12.9988 61.0389C11.6779 61.7047 10.1263 60.6253 10.3779 59.2129L11.1852 54.663C11.2585 54.2292 11.1118 53.7853 10.7868 53.4725L7.34815 50.2543C6.27883 49.2455 6.8659 47.5002 8.34409 47.2883L13.0932 46.6225C13.544 46.5619 13.9423 46.2794 14.1415 45.886L16.2697 41.7497C16.9302 40.4584 18.8487 40.4584 19.5091 41.7497H19.5196Z" stroke="#D9081E" stroke-width="3" stroke-linecap="round" stroke-linejoin="round"/>
<path d="M14.7183 14.1775L16.8465 18.3138C17.0457 18.7072 17.4441 18.9897 17.8949 19.0502L22.6439 19.716C24.1221 19.9279 24.7197 21.6732 23.6399 22.682L20.2013 25.9003C19.8763 26.213 19.719 26.6569 19.8029 27.0907L20.6101 31.6406C20.8617 33.0631 19.3206 34.1425 17.9892 33.4666L13.7434 31.3178C13.3345 31.116 12.8523 31.116 12.4434 31.3178L8.19753 33.4666C6.8766 34.1325 5.32503 33.053 5.57664 31.6406L6.38388 27.0907C6.45726 26.6569 6.31049 26.213 5.9855 25.9003L2.54688 22.682C1.47755 21.6732 2.06465 19.9279 3.54283 19.716L8.2919 19.0502C8.74269 18.9897 9.14107 18.7072 9.34026 18.3138L11.4684 14.1775C12.1289 12.8862 14.0474 12.8862 14.7079 14.1775H14.7183Z" stroke="#D9081E" stroke-width="3" stroke-linecap="round" stroke-linejoin="round"/>
<path d="M68.373 41.7497L66.2448 45.886C66.0456 46.2794 65.6472 46.5619 65.1965 46.6225L60.4474 47.2883C58.9692 47.5002 58.3716 49.2455 59.4514 50.2543L62.8901 53.4725C63.2151 53.7853 63.3723 54.2292 63.2884 54.663L62.4812 59.2129C62.2296 60.6353 63.7707 61.7148 65.1021 61.0389L69.3479 58.89C69.7568 58.6883 70.2391 58.6883 70.6479 58.89L74.8938 61.0389C76.2147 61.7047 77.7663 60.6253 77.5147 59.2129L76.7074 54.663C76.634 54.2292 76.7808 53.7853 77.1058 53.4725L80.5444 50.2543C81.6138 49.2455 81.0267 47.5002 79.5485 47.2883L74.7994 46.6225C74.3486 46.5619 73.9502 46.2794 73.7511 45.886L71.6229 41.7497C70.9624 40.4584 69.0439 40.4584 68.3835 41.7497H68.373Z" stroke="#D9081E" stroke-width="3" stroke-linecap="round" stroke-linejoin="round"/>
<path d="M73.1742 14.1775L71.0461 18.3138C70.8469 18.7072 70.4485 18.9897 69.9977 19.0502L65.2487 19.716C63.7705 19.9279 63.1729 21.6732 64.2527 22.682L67.6913 25.9003C68.0163 26.213 68.1736 26.6569 68.0897 27.0907L67.2825 31.6406C67.0309 33.0631 68.5719 34.1425 69.9034 33.4666L74.1492 31.3178C74.5581 31.116 75.0403 31.116 75.4492 31.3178L79.695 33.4666C81.016 34.1325 82.5675 33.053 82.3159 31.6406L81.5087 27.0907C81.4353 26.6569 81.5821 26.213 81.9071 25.9003L85.3457 22.682C86.415 21.6732 85.8279 19.9279 84.3497 19.716L79.6007 19.0502C79.1499 18.9897 78.7515 18.7072 78.5523 18.3138L76.4242 14.1775C75.7637 12.8862 73.8452 12.8862 73.1847 14.1775H73.1742Z" stroke="#D9081E" stroke-width="3" stroke-linecap="round" stroke-linejoin="round"/>
</svg>
